<svg xmlns="http://www.w3.org/2000/svg" xmlns:xlink="http://www.w3.org/1999/xlink" id="Camada_1" x="0" y="0" enable-background="new 0 0 192 108" version="1.1" viewBox="0 0 192 108" xml:space="preserve"><g><g><g><rect width="192" height="108" fill="#06172A"/></g><g><rect width="38.4" height="108" fill="#92BCEA"/></g><g><g><g><rect width="34.56" height="25.92" x="52.8" y="7.92" fill="#0F70D7"/></g><g><rect width="34.56" height="25.92" x="143.04" y="7.92" fill="#0F70D7"/></g><g><rect width="34.56" height="25.92" x="97.92" y="7.92" fill="#0F70D7"/></g></g><g><path fill="#FFF" d="M71.43,20.82c1.64-0.56,2.82-2.11,2.82-3.94c0-2.3-1.86-4.16-4.16-4.16s-4.16,1.86-4.16,4.16 c0,1.83,1.18,3.38,2.82,3.94c-3.96,0.64-6.98,4.08-6.98,8.22h16.65C78.41,24.9,75.38,21.47,71.43,20.82z"/><path fill="#FFF" d="M116.55,20.82c1.64-0.56,2.82-2.11,2.82-3.94c0-2.3-1.86-4.16-4.16-4.16c-2.3,0-4.16,1.86-4.16,4.16 c0,1.83,1.18,3.38,2.82,3.94c-3.96,0.64-6.98,4.08-6.98,8.22h16.65C123.53,24.9,120.5,21.47,116.55,20.82z"/><path fill="#FFF" d="M161.67,20.82c1.64-0.56,2.82-2.11,2.82-3.94c0-2.3-1.86-4.16-4.16-4.16s-4.16,1.86-4.16,4.16 c0,1.83,1.18,3.38,2.82,3.94c-3.96,0.64-6.98,4.08-6.98,8.22h16.65C168.65,24.9,165.62,21.47,161.67,20.82z"/></g></g><g><rect width="124.8" height="52.8" x="52.8" y="47.28" fill="#FFF"/><g><polygon fill="#008081" points="107.44 56.88 126.84 90.48 88.04 90.48"/><polygon fill="#008081" points="130.72 70.32 142.36 90.48 119.08 90.48"/><circle cx="122.96" cy="64.47" r="4.49" fill="#DF2721"/></g></g></g><g><g><line x1="52.8" x2="57.3" y1="40.56" y2="40.56" fill="none" stroke="#FFF" stroke-miterlimit="10" stroke-width="2"/><line x1="61.13" x2="171.19" y1="40.56" y2="40.56" fill="none" stroke="#FFF" stroke-dasharray="8.613 3.828" stroke-miterlimit="10" stroke-width="2"/><line x1="173.1" x2="177.6" y1="40.56" y2="40.56" fill="none" stroke="#FFF" stroke-miterlimit="10" stroke-width="2"/></g></g></g></svg>