<svg xmlns="http://www.w3.org/2000/svg" xmlns:xlink="http://www.w3.org/1999/xlink" id="Camada_1" x="0" y="0" enable-background="new 0 0 192 108" version="1.1" viewBox="0 0 192 108" xml:space="preserve"><g><g><rect width="192" height="108" fill="#06172A"/></g><g><rect width="38.4" height="76.8" fill="#92BCEA"/></g><g><g><rect width="30.72" height="23.52" x="3.84" y="80.64" fill="#0F70D7"/></g><path fill="#FFF" d="M20.55,92.34c1.64-0.56,2.82-2.11,2.82-3.94c0-2.3-1.86-4.16-4.16-4.16s-4.16,1.86-4.16,4.16 c0,1.83,1.18,3.38,2.82,3.94c-3.96,0.64-6.98,4.08-6.98,8.22h16.65C27.53,96.42,24.5,92.99,20.55,92.34z"/></g><g><rect width="124.8" height="67.2" x="55.2" y="20.4" fill="#FFF"/><g><polygon fill="#008081" points="107.62 32.4 132.56 75.6 82.68 75.6"/><polygon fill="#008081" points="137.55 49.68 152.52 75.6 122.59 75.6"/><circle cx="127.58" cy="42.16" r="5.77" fill="#DF2721"/></g></g></g></svg>