<svg xmlns="http://www.w3.org/2000/svg" xmlns:xlink="http://www.w3.org/1999/xlink" id="Camada_1" x="0" y="0" enable-background="new 0 0 192 108" version="1.1" viewBox="0 0 192 108" xml:space="preserve"><g><g><rect width="192" height="108" fill="#06172A"/></g><g><rect width="38.4" height="108" fill="#92BCEA"/></g><g><g><g><rect width="34.56" height="25.92" x="52.8" y="9.84" fill="#0F70D7"/></g><g><rect width="34.56" height="25.92" x="143.04" y="9.84" fill="#0F70D7"/></g><g><rect width="34.56" height="25.92" x="97.92" y="9.84" fill="#0F70D7"/></g></g><g><path fill="#FFF" d="M71.43,22.74c1.64-0.56,2.82-2.11,2.82-3.94c0-2.3-1.86-4.16-4.16-4.16s-4.16,1.86-4.16,4.16 c0,1.83,1.18,3.38,2.82,3.94c-3.96,0.64-6.98,4.08-6.98,8.22h16.65C78.41,26.82,75.38,23.39,71.43,22.74z"/><path fill="#FFF" d="M116.55,22.74c1.64-0.56,2.82-2.11,2.82-3.94c0-2.3-1.86-4.16-4.16-4.16c-2.3,0-4.16,1.86-4.16,4.16 c0,1.83,1.18,3.38,2.82,3.94c-3.96,0.64-6.98,4.08-6.98,8.22h16.65C123.53,26.82,120.5,23.39,116.55,22.74z"/><path fill="#FFF" d="M161.67,22.74c1.64-0.56,2.82-2.11,2.82-3.94c0-2.3-1.86-4.16-4.16-4.16s-4.16,1.86-4.16,4.16 c0,1.83,1.18,3.38,2.82,3.94c-3.96,0.64-6.98,4.08-6.98,8.22h16.65C168.65,26.82,165.62,23.39,161.67,22.74z"/></g></g><g><rect width="124.8" height="52.8" x="52.8" y="45.36" fill="#FFF"/><g><polygon fill="#008081" points="107.44 54.96 126.84 88.56 88.04 88.56"/><polygon fill="#008081" points="130.72 68.4 142.36 88.56 119.08 88.56"/><circle cx="122.96" cy="62.55" r="4.49" fill="#DF2721"/></g></g></g></svg>