<svg xmlns="http://www.w3.org/2000/svg" xmlns:xlink="http://www.w3.org/1999/xlink" id="Camada_1" x="0" y="0" enable-background="new 0 0 192 108" version="1.1" viewBox="0 0 192 108" xml:space="preserve"><g><g><rect width="192" height="108" fill="#06172A"/></g><g><rect width="38.4" height="76.8" fill="#92BCEA"/></g><g><g><g><rect width="124.8" height="67.2" x="55.2" y="20.4" fill="#0F70D7"/></g></g><path fill="#FFF" d="M121.16,53.85c4.34-1.48,7.46-5.59,7.46-10.43c0-6.09-4.93-11.02-11.02-11.02s-11.02,4.93-11.02,11.02 c0,4.84,3.12,8.95,7.46,10.43c-10.48,1.7-18.48,10.79-18.48,21.75h44.08C139.64,64.64,131.64,55.55,121.16,53.85z"/></g><g><rect width="30.72" height="23.52" x="3.84" y="80.64" fill="#FFF"/><g><polygon fill="#008081" points="15.63 84.68 24.55 100.12 6.72 100.12"/><polygon fill="#008081" points="26.33 90.86 31.68 100.12 20.98 100.12"/><circle cx="22.77" cy="88.17" r="2.06" fill="#DF2721"/></g></g></g></svg>